<svg width="624" height="67" viewBox="0 0 624 67" fill="none" xmlns="http://www.w3.org/2000/svg">
<path d="M21.7818 21.9123L36.4547 13.4125C39.8255 11.4357 41.0151 7.08697 39.0324 3.52891C37.0495 0.168524 32.6874 -1.01751 29.1183 0.959186L3.73828 15.5868L21.7818 21.9123Z" fill="#EA4335"/>
<path d="M32.6872 43.4581C35.2648 43.4581 37.6443 42.0744 38.8339 39.8999C40.8167 36.5396 39.627 31.9932 36.2562 30.0164L10.8762 15.3889C7.50544 13.4122 2.94497 14.5982 0.962155 17.9586C-1.02066 21.319 0.16906 25.8654 3.53984 27.8421L28.9198 42.4696C30.3078 43.2603 31.4975 43.4581 32.6872 43.4581Z" fill="#4285F4"/>
<path d="M57.8667 43.4574C59.0564 43.4574 60.2461 43.0621 61.4357 42.469L86.8158 27.8414L69.1688 21.3184L54.2977 29.8182C50.9269 31.7949 49.7371 36.1437 51.72 39.7017C53.1079 42.2714 55.4874 43.4574 57.8667 43.4574Z" fill="#FBBC04"/>
<path d="M83.2497 29.0283C85.8274 29.0283 88.2067 27.6447 89.3964 25.4703C91.3793 22.1099 90.1896 17.5634 86.8188 15.5868L61.4388 0.959195C58.0679 -1.01751 53.5074 0.168521 51.5247 3.52891C49.5418 6.88929 50.7315 11.4357 54.1023 13.4124L79.4824 28.04C80.6721 28.633 82.06 29.0283 83.2497 29.0283Z" fill="#0F9D58"/>
<path d="M114.912 50.544H116.4L119.232 58.848L119.632 59.984H119.696L120.096 58.848L123.04 50.544H124.544L120.352 62H118.96L114.912 50.544ZM126.245 52.4C125.978 52.4 125.749 52.304 125.557 52.112C125.365 51.92 125.269 51.6907 125.269 51.424C125.269 51.1573 125.365 50.928 125.557 50.736C125.749 50.544 125.978 50.448 126.245 50.448C126.512 50.448 126.741 50.544 126.933 50.736C127.125 50.928 127.221 51.1573 127.221 51.424C127.221 51.6907 127.125 51.92 126.933 52.112C126.752 52.304 126.522 52.4 126.245 52.4ZM125.573 54.064H126.933V62H125.573V54.064ZM132.433 65.712C131.473 65.712 130.689 65.4827 130.081 65.024C129.473 64.5653 129.062 64.032 128.849 63.424L130.113 62.896C130.273 63.3653 130.556 63.744 130.961 64.032C131.377 64.3307 131.868 64.48 132.433 64.48C133.276 64.48 133.921 64.2293 134.369 63.728C134.828 63.2373 135.057 62.5493 135.057 61.664V60.816H134.993C134.737 61.2213 134.369 61.5573 133.889 61.824C133.409 62.0907 132.865 62.224 132.257 62.224C131.585 62.224 130.961 62.0427 130.385 61.68C129.809 61.3173 129.35 60.816 129.009 60.176C128.668 59.536 128.497 58.816 128.497 58.016C128.497 57.216 128.668 56.496 129.009 55.856C129.35 55.216 129.809 54.7147 130.385 54.352C130.961 53.9893 131.585 53.808 132.257 53.808C132.865 53.808 133.409 53.9413 133.889 54.208C134.369 54.4747 134.737 54.8107 134.993 55.216H135.057V54.064H136.369V61.68C136.369 62.5547 136.198 63.296 135.857 63.904C135.516 64.512 135.046 64.9653 134.449 65.264C133.852 65.5627 133.18 65.712 132.433 65.712ZM132.465 60.992C132.934 60.992 133.366 60.8747 133.761 60.64C134.156 60.3947 134.47 60.048 134.705 59.6C134.95 59.152 135.073 58.624 135.073 58.016C135.073 57.408 134.95 56.88 134.705 56.432C134.47 55.9733 134.156 55.6267 133.761 55.392C133.366 55.1573 132.934 55.04 132.465 55.04C131.996 55.04 131.564 55.1627 131.169 55.408C130.774 55.6427 130.454 55.984 130.209 56.432C129.974 56.88 129.857 57.408 129.857 58.016C129.857 58.624 129.974 59.152 130.209 59.6C130.454 60.048 130.774 60.3947 131.169 60.64C131.564 60.8747 131.996 60.992 132.465 60.992ZM138.351 54.064H139.647V55.248H139.711C139.935 54.8427 140.287 54.5013 140.767 54.224C141.247 53.9467 141.759 53.808 142.303 53.808C143.274 53.808 144.01 54.0907 144.511 54.656C145.023 55.2213 145.279 55.9947 145.279 56.976V62H143.935V57.184C143.935 56.416 143.759 55.8667 143.407 55.536C143.066 55.2053 142.575 55.04 141.935 55.04C141.509 55.04 141.125 55.1627 140.783 55.408C140.442 55.6533 140.175 55.9733 139.983 56.368C139.802 56.7627 139.711 57.1787 139.711 57.616V62H138.351V54.064ZM149.709 62.256C149.133 62.256 148.61 62.144 148.141 61.92C147.682 61.6853 147.319 61.3653 147.053 60.96C146.797 60.544 146.669 60.08 146.669 59.568C146.669 58.7253 146.983 58.0693 147.613 57.6C148.253 57.1307 149.069 56.896 150.061 56.896C150.551 56.896 150.994 56.9493 151.389 57.056C151.783 57.1627 152.098 57.28 152.333 57.408V56.992C152.333 56.608 152.231 56.2667 152.029 55.968C151.837 55.6587 151.575 55.424 151.245 55.264C150.914 55.0933 150.557 55.008 150.173 55.008C149.266 55.008 148.573 55.376 148.093 56.112L146.957 55.36C147.298 54.8693 147.735 54.4907 148.269 54.224C148.813 53.9467 149.426 53.808 150.109 53.808C151.197 53.808 152.055 54.1013 152.685 54.688C153.314 55.2747 153.629 56.064 153.629 57.056V62H152.333V60.832H152.269C152.013 61.2373 151.666 61.5787 151.229 61.856C150.791 62.1227 150.285 62.256 149.709 62.256ZM149.821 61.056C150.247 61.056 150.653 60.944 151.037 60.72C151.421 60.496 151.73 60.192 151.965 59.808C152.21 59.424 152.333 59.008 152.333 58.56C151.735 58.176 151.047 57.984 150.269 57.984C149.597 57.984 149.058 58.1387 148.653 58.448C148.258 58.7467 148.061 59.1307 148.061 59.6C148.061 60.0267 148.237 60.3787 148.589 60.656C148.941 60.9227 149.351 61.056 149.821 61.056ZM155.492 54.064H156.788V55.248H156.852C157.076 54.8427 157.428 54.5013 157.908 54.224C158.388 53.9467 158.9 53.808 159.444 53.808C160.415 53.808 161.151 54.0907 161.652 54.656C162.164 55.2213 162.42 55.9947 162.42 56.976V62H161.076V57.184C161.076 56.416 160.9 55.8667 160.548 55.536C160.207 55.2053 159.716 55.04 159.076 55.04C158.649 55.04 158.265 55.1627 157.924 55.408C157.583 55.6533 157.316 55.9733 157.124 56.368C156.943 56.7627 156.852 57.1787 156.852 57.616V62H155.492V54.064ZM163.815 53.424L164.663 52.224C164.439 52.1813 164.247 52.08 164.087 51.92C163.938 51.76 163.863 51.5573 163.863 51.312C163.863 51.024 163.959 50.784 164.151 50.592C164.354 50.3893 164.599 50.288 164.887 50.288C165.164 50.288 165.399 50.3893 165.591 50.592C165.794 50.784 165.895 51.024 165.895 51.312C165.895 51.4827 165.858 51.6533 165.783 51.824C165.708 51.9947 165.602 52.1813 165.463 52.384L164.471 53.84L163.815 53.424ZM169.667 62.256C168.824 62.256 168.11 62.0427 167.523 61.616C166.936 61.1893 166.526 60.6613 166.291 60.032L167.507 59.504C167.71 60.0053 168.003 60.3893 168.387 60.656C168.782 60.9227 169.208 61.056 169.667 61.056C170.179 61.056 170.6 60.944 170.931 60.72C171.272 60.496 171.443 60.224 171.443 59.904C171.443 59.5947 171.315 59.3387 171.059 59.136C170.814 58.9333 170.387 58.7573 169.779 58.608L168.691 58.336C168.094 58.1973 167.582 57.9467 167.155 57.584C166.739 57.2213 166.531 56.7413 166.531 56.144C166.531 55.6533 166.67 55.232 166.947 54.88C167.235 54.528 167.614 54.2613 168.083 54.08C168.552 53.8987 169.064 53.808 169.619 53.808C170.302 53.808 170.92 53.968 171.475 54.288C172.04 54.5973 172.44 55.04 172.675 55.616L171.475 56.128C171.304 55.744 171.043 55.4613 170.691 55.28C170.35 55.0987 169.966 55.008 169.539 55.008C169.123 55.008 168.744 55.1093 168.403 55.312C168.072 55.5147 167.907 55.776 167.907 56.096C167.907 56.3733 168.014 56.592 168.227 56.752C168.451 56.912 168.803 57.056 169.283 57.184L170.467 57.472C171.256 57.6747 171.843 57.9787 172.227 58.384C172.622 58.7787 172.819 59.2533 172.819 59.808C172.819 60.2667 172.686 60.6827 172.419 61.056C172.152 61.4293 171.779 61.7227 171.299 61.936C170.819 62.1493 170.275 62.256 169.667 62.256ZM178.28 50.544H179.624V62H178.28V50.544ZM181.898 54.064H183.194V55.248H183.258C183.482 54.8427 183.834 54.5013 184.314 54.224C184.794 53.9467 185.306 53.808 185.85 53.808C186.821 53.808 187.557 54.0907 188.058 54.656C188.57 55.2213 188.826 55.9947 188.826 56.976V62H187.482V57.184C187.482 56.416 187.306 55.8667 186.954 55.536C186.613 55.2053 186.122 55.04 185.482 55.04C185.056 55.04 184.672 55.1627 184.33 55.408C183.989 55.6533 183.722 55.9733 183.53 56.368C183.349 56.7627 183.258 57.1787 183.258 57.616V62H181.898V54.064ZM193.48 62.256C192.637 62.256 191.922 62.0427 191.336 61.616C190.749 61.1893 190.338 60.6613 190.104 60.032L191.32 59.504C191.522 60.0053 191.816 60.3893 192.2 60.656C192.594 60.9227 193.021 61.056 193.48 61.056C193.992 61.056 194.413 60.944 194.744 60.72C195.085 60.496 195.256 60.224 195.256 59.904C195.256 59.5947 195.128 59.3387 194.872 59.136C194.626 58.9333 194.2 58.7573 193.592 58.608L192.504 58.336C191.906 58.1973 191.394 57.9467 190.968 57.584C190.552 57.2213 190.344 56.7413 190.344 56.144C190.344 55.6533 190.482 55.232 190.76 54.88C191.048 54.528 191.426 54.2613 191.896 54.08C192.365 53.8987 192.877 53.808 193.432 53.808C194.114 53.808 194.733 53.968 195.288 54.288C195.853 54.5973 196.253 55.04 196.488 55.616L195.288 56.128C195.117 55.744 194.856 55.4613 194.504 55.28C194.162 55.0987 193.778 55.008 193.352 55.008C192.936 55.008 192.557 55.1093 192.216 55.312C191.885 55.5147 191.72 55.776 191.72 56.096C191.72 56.3733 191.826 56.592 192.039 56.752C192.264 56.912 192.616 57.056 193.096 57.184L194.28 57.472C195.069 57.6747 195.656 57.9787 196.04 58.384C196.434 58.7787 196.632 59.2533 196.632 59.808C196.632 60.2667 196.498 60.6827 196.232 61.056C195.965 61.4293 195.592 61.7227 195.112 61.936C194.632 62.1493 194.088 62.256 193.48 62.256ZM201.064 62.128C200.744 62.128 200.445 62.0747 200.168 61.968C199.901 61.8613 199.672 61.7173 199.48 61.536C199.266 61.3333 199.106 61.0987 199 60.832C198.904 60.5547 198.856 60.2293 198.856 59.856V55.296H197.448V54.064H198.856V51.696H200.2V54.064H202.152V55.296H200.2V59.52C200.2 59.968 200.29 60.2987 200.472 60.512C200.674 60.7467 200.952 60.864 201.304 60.864C201.634 60.864 201.922 60.7893 202.168 60.64V61.952C201.997 62.016 201.832 62.0587 201.672 62.08C201.522 62.112 201.32 62.128 201.064 62.128ZM204.62 52.4C204.353 52.4 204.124 52.304 203.932 52.112C203.74 51.92 203.644 51.6907 203.644 51.424C203.644 51.1573 203.74 50.928 203.932 50.736C204.124 50.544 204.353 50.448 204.62 50.448C204.887 50.448 205.116 50.544 205.308 50.736C205.5 50.928 205.596 51.1573 205.596 51.424C205.596 51.6907 205.5 51.92 205.308 52.112C205.127 52.304 204.897 52.4 204.62 52.4ZM203.948 54.064H205.308V62H203.948V54.064ZM210.376 62.128C210.056 62.128 209.757 62.0747 209.48 61.968C209.213 61.8613 208.984 61.7173 208.792 61.536C208.579 61.3333 208.419 61.0987 208.312 60.832C208.216 60.5547 208.168 60.2293 208.168 59.856V55.296H206.76V54.064H208.168V51.696H209.512V54.064H211.464V55.296H209.512V59.52C209.512 59.968 209.603 60.2987 209.784 60.512C209.987 60.7467 210.264 60.864 210.616 60.864C210.947 60.864 211.235 60.7893 211.48 60.64V61.952C211.309 62.016 211.144 62.0587 210.984 62.08C210.835 62.112 210.632 62.128 210.376 62.128ZM215.983 62.256C215.001 62.256 214.255 61.9733 213.743 61.408C213.241 60.8427 212.991 60.0587 212.991 59.056V54.064H214.351V58.832C214.351 59.6107 214.521 60.1707 214.863 60.512C215.215 60.8533 215.705 61.024 216.335 61.024C216.772 61.024 217.161 60.9013 217.503 60.656C217.844 60.4107 218.105 60.0907 218.287 59.696C218.479 59.3013 218.575 58.8853 218.575 58.448V54.064H219.919V62H218.639V60.816H218.575C218.34 61.2213 217.983 61.5627 217.503 61.84C217.033 62.1173 216.527 62.256 215.983 62.256ZM225.048 62.128C224.728 62.128 224.429 62.0747 224.152 61.968C223.885 61.8613 223.656 61.7173 223.464 61.536C223.251 61.3333 223.091 61.0987 222.984 60.832C222.888 60.5547 222.84 60.2293 222.84 59.856V55.296H221.432V54.064H222.84V51.696H224.184V54.064H226.136V55.296H224.184V59.52C224.184 59.968 224.275 60.2987 224.456 60.512C224.659 60.7467 224.936 60.864 225.288 60.864C225.619 60.864 225.907 60.7893 226.152 60.64V61.952C225.981 62.016 225.816 62.0587 225.656 62.08C225.507 62.112 225.304 62.128 225.048 62.128ZM230.903 62.256C230.135 62.256 229.447 62.0747 228.839 61.712C228.242 61.3493 227.772 60.848 227.431 60.208C227.09 59.568 226.919 58.8427 226.919 58.032C226.919 57.264 227.079 56.56 227.399 55.92C227.719 55.2693 228.172 54.7573 228.759 54.384C229.356 54 230.039 53.808 230.807 53.808C231.575 53.808 232.247 53.984 232.823 54.336C233.41 54.6773 233.858 55.1627 234.167 55.792C234.476 56.4213 234.631 57.1467 234.631 57.968C234.631 58.1173 234.62 58.224 234.599 58.288H228.295C228.316 58.8853 228.46 59.392 228.727 59.808C228.994 60.2133 229.324 60.5173 229.719 60.72C230.124 60.9227 230.54 61.024 230.967 61.024C231.97 61.024 232.743 60.5333 233.287 59.552L234.487 60.128C234.146 60.768 233.671 61.2853 233.063 61.68C232.466 62.064 231.746 62.256 230.903 62.256ZM233.191 57.152C233.17 56.832 233.079 56.512 232.919 56.192C232.759 55.872 232.498 55.6 232.135 55.376C231.783 55.152 231.335 55.04 230.791 55.04C230.183 55.04 229.66 55.232 229.223 55.616C228.786 56 228.508 56.512 228.391 57.152H233.191ZM243.499 62.256C242.72 62.256 242.021 62.0747 241.403 61.712C240.784 61.3387 240.299 60.832 239.947 60.192C239.605 59.5413 239.435 58.8213 239.435 58.032C239.435 57.2427 239.605 56.528 239.947 55.888C240.299 55.2373 240.784 54.7307 241.403 54.368C242.021 53.9947 242.72 53.808 243.499 53.808C244.277 53.808 244.976 53.9947 245.595 54.368C246.224 54.7307 246.709 55.2373 247.051 55.888C247.403 56.528 247.579 57.2427 247.579 58.032C247.579 58.8213 247.403 59.5413 247.051 60.192C246.709 60.832 246.224 61.3387 245.595 61.712C244.976 62.0747 244.277 62.256 243.499 62.256ZM243.499 61.024C243.979 61.024 244.427 60.9013 244.843 60.656C245.259 60.4107 245.589 60.064 245.835 59.616C246.091 59.1573 246.219 58.6293 246.219 58.032C246.219 57.4347 246.091 56.912 245.835 56.464C245.589 56.0053 245.259 55.6533 244.843 55.408C244.427 55.1627 243.979 55.04 243.499 55.04C243.029 55.04 242.587 55.1627 242.171 55.408C241.755 55.6533 241.419 56.0053 241.163 56.464C240.917 56.912 240.795 57.4347 240.795 58.032C240.795 58.6293 240.917 59.1573 241.163 59.616C241.419 60.064 241.755 60.4107 242.171 60.656C242.587 60.9013 243.029 61.024 243.499 61.024ZM249.811 55.296H248.323V54.064H249.811V52.96C249.811 52.448 249.923 52 250.147 51.616C250.381 51.232 250.691 50.9387 251.075 50.736C251.469 50.5227 251.907 50.416 252.387 50.416C252.653 50.416 252.867 50.432 253.027 50.464C253.197 50.496 253.373 50.544 253.555 50.608V51.92C253.203 51.76 252.829 51.68 252.435 51.68C252.083 51.68 251.784 51.808 251.539 52.064C251.293 52.3093 251.171 52.656 251.171 53.104V54.064H253.219V55.296H251.171V62H249.811V55.296ZM258.811 50.544H260.155V62H258.811V50.544ZM262.43 54.064H263.726V55.248H263.789C264.014 54.8427 264.366 54.5013 264.846 54.224C265.326 53.9467 265.838 53.808 266.382 53.808C267.352 53.808 268.088 54.0907 268.59 54.656C269.102 55.2213 269.358 55.9947 269.358 56.976V62H268.014V57.184C268.014 56.416 267.838 55.8667 267.486 55.536C267.144 55.2053 266.654 55.04 266.014 55.04C265.587 55.04 265.203 55.1627 264.862 55.408C264.52 55.6533 264.254 55.9733 264.062 56.368C263.88 56.7627 263.789 57.1787 263.789 57.616V62H262.43V54.064ZM272.061 55.296H270.573V54.064H272.061V52.96C272.061 52.448 272.173 52 272.397 51.616C272.631 51.232 272.941 50.9387 273.325 50.736C273.719 50.5227 274.157 50.416 274.637 50.416C274.903 50.416 275.117 50.432 275.277 50.464C275.447 50.496 275.623 50.544 275.805 50.608V51.92C275.453 51.76 275.079 51.68 274.685 51.68C274.333 51.68 274.034 51.808 273.789 52.064C273.543 52.3093 273.421 52.656 273.421 53.104V54.064H275.469V55.296H273.421V62H272.061V55.296ZM280.171 62.256C279.392 62.256 278.693 62.0747 278.075 61.712C277.456 61.3387 276.971 60.832 276.618 60.192C276.277 59.5413 276.107 58.8213 276.107 58.032C276.107 57.2427 276.277 56.528 276.618 55.888C276.971 55.2373 277.456 54.7307 278.075 54.368C278.693 53.9947 279.392 53.808 280.171 53.808C280.949 53.808 281.648 53.9947 282.267 54.368C282.896 54.7307 283.381 55.2373 283.723 55.888C284.075 56.528 284.251 57.2427 284.251 58.032C284.251 58.8213 284.075 59.5413 283.723 60.192C283.381 60.832 282.896 61.3387 282.267 61.712C281.648 62.0747 280.949 62.256 280.171 62.256ZM280.171 61.024C280.651 61.024 281.099 60.9013 281.515 60.656C281.931 60.4107 282.261 60.064 282.507 59.616C282.763 59.1573 282.891 58.6293 282.891 58.032C282.891 57.4347 282.763 56.912 282.507 56.464C282.261 56.0053 281.931 55.6533 281.515 55.408C281.099 55.1627 280.651 55.04 280.171 55.04C279.701 55.04 279.259 55.1627 278.843 55.408C278.427 55.6533 278.091 56.0053 277.835 56.464C277.589 56.912 277.467 57.4347 277.467 58.032C277.467 58.6293 277.589 59.1573 277.835 59.616C278.091 60.064 278.427 60.4107 278.843 60.656C279.259 60.9013 279.701 61.024 280.171 61.024ZM285.633 54.064H286.929V55.36H286.993C287.142 54.9227 287.446 54.56 287.905 54.272C288.374 53.9733 288.838 53.824 289.297 53.824C289.627 53.824 289.937 53.872 290.225 53.968V55.44C289.937 55.28 289.563 55.2 289.105 55.2C288.731 55.2 288.379 55.312 288.049 55.536C287.729 55.7493 287.473 56.0373 287.281 56.4C287.089 56.7627 286.993 57.1573 286.993 57.584V62H285.633V54.064ZM291.492 54.064H292.788V55.248H292.852C293.076 54.8427 293.423 54.5013 293.892 54.224C294.372 53.9467 294.857 53.808 295.348 53.808C295.945 53.808 296.457 53.952 296.884 54.24C297.321 54.5173 297.636 54.9013 297.828 55.392C298.127 54.912 298.511 54.528 298.98 54.24C299.449 53.952 299.988 53.808 300.596 53.808C301.524 53.808 302.223 54.0907 302.692 54.656C303.161 55.2213 303.396 56 303.396 56.992V62H302.036V57.2C302.036 56.4213 301.887 55.8667 301.588 55.536C301.3 55.2053 300.852 55.04 300.244 55.04C299.839 55.04 299.471 55.1627 299.14 55.408C298.82 55.6427 298.569 55.9573 298.388 56.352C298.207 56.7467 298.116 57.1627 298.116 57.6V62H296.772V57.2C296.772 56.4213 296.623 55.8667 296.324 55.536C296.025 55.2053 295.577 55.04 294.98 55.04C294.564 55.04 294.196 55.1627 293.876 55.408C293.556 55.6533 293.305 55.9733 293.124 56.368C292.943 56.7627 292.852 57.184 292.852 57.632V62H291.492V54.064ZM307.818 62.256C307.242 62.256 306.719 62.144 306.25 61.92C305.791 61.6853 305.429 61.3653 305.162 60.96C304.906 60.544 304.778 60.08 304.778 59.568C304.778 58.7253 305.093 58.0693 305.722 57.6C306.362 57.1307 307.178 56.896 308.17 56.896C308.661 56.896 309.103 56.9493 309.498 57.056C309.893 57.1627 310.207 57.28 310.442 57.408V56.992C310.442 56.608 310.341 56.2667 310.138 55.968C309.946 55.6587 309.685 55.424 309.354 55.264C309.023 55.0933 308.666 55.008 308.282 55.008C307.375 55.008 306.682 55.376 306.202 56.112L305.066 55.36C305.407 54.8693 305.845 54.4907 306.378 54.224C306.922 53.9467 307.535 53.808 308.218 53.808C309.306 53.808 310.165 54.1013 310.794 54.688C311.423 55.2747 311.738 56.064 311.738 57.056V62H310.442V60.832H310.378C310.122 61.2373 309.775 61.5787 309.338 61.856C308.901 62.1227 308.394 62.256 307.818 62.256ZM307.93 61.056C308.357 61.056 308.762 60.944 309.146 60.72C309.53 60.496 309.839 60.192 310.074 59.808C310.319 59.424 310.442 59.008 310.442 58.56C309.845 58.176 309.157 57.984 308.378 57.984C307.706 57.984 307.167 58.1387 306.762 58.448C306.367 58.7467 306.17 59.1307 306.17 59.6C306.17 60.0267 306.346 60.3787 306.698 60.656C307.05 60.9227 307.461 61.056 307.93 61.056ZM316.501 62.128C316.181 62.128 315.882 62.0747 315.605 61.968C315.338 61.8613 315.109 61.7173 314.917 61.536C314.704 61.3333 314.544 61.0987 314.437 60.832C314.341 60.5547 314.293 60.2293 314.293 59.856V55.296H312.885V54.064H314.293V51.696H315.637V54.064H317.589V55.296H315.637V59.52C315.637 59.968 315.728 60.2987 315.909 60.512C316.112 60.7467 316.389 60.864 316.741 60.864C317.072 60.864 317.36 60.7893 317.605 60.64V61.952C317.434 62.016 317.269 62.0587 317.109 62.08C316.96 62.112 316.757 62.128 316.501 62.128ZM320.058 52.4C319.791 52.4 319.562 52.304 319.37 52.112C319.178 51.92 319.082 51.6907 319.082 51.424C319.082 51.1573 319.178 50.928 319.37 50.736C319.562 50.544 319.791 50.448 320.058 50.448C320.324 50.448 320.554 50.544 320.746 50.736C320.938 50.928 321.034 51.1573 321.034 51.424C321.034 51.6907 320.938 51.92 320.746 52.112C320.564 52.304 320.335 52.4 320.058 52.4ZM319.386 54.064H320.746V62H319.386V54.064ZM326.374 62.256C325.595 62.256 324.896 62.0747 324.278 61.712C323.659 61.3387 323.174 60.832 322.822 60.192C322.48 59.5413 322.31 58.8213 322.31 58.032C322.31 57.2427 322.48 56.528 322.822 55.888C323.174 55.2373 323.659 54.7307 324.278 54.368C324.896 53.9947 325.595 53.808 326.374 53.808C327.152 53.808 327.851 53.9947 328.47 54.368C329.099 54.7307 329.584 55.2373 329.926 55.888C330.278 56.528 330.454 57.2427 330.454 58.032C330.454 58.8213 330.278 59.5413 329.926 60.192C329.584 60.832 329.099 61.3387 328.47 61.712C327.851 62.0747 327.152 62.256 326.374 62.256ZM326.374 61.024C326.854 61.024 327.302 60.9013 327.718 60.656C328.134 60.4107 328.464 60.064 328.71 59.616C328.966 59.1573 329.094 58.6293 329.094 58.032C329.094 57.4347 328.966 56.912 328.71 56.464C328.464 56.0053 328.134 55.6533 327.718 55.408C327.302 55.1627 326.854 55.04 326.374 55.04C325.904 55.04 325.462 55.1627 325.046 55.408C324.63 55.6533 324.294 56.0053 324.038 56.464C323.792 56.912 323.67 57.4347 323.67 58.032C323.67 58.6293 323.792 59.1573 324.038 59.616C324.294 60.064 324.63 60.4107 325.046 60.656C325.462 60.9013 325.904 61.024 326.374 61.024ZM331.836 54.064H333.132V55.248H333.196C333.42 54.8427 333.772 54.5013 334.252 54.224C334.732 53.9467 335.244 53.808 335.788 53.808C336.758 53.808 337.494 54.0907 337.996 54.656C338.508 55.2213 338.764 55.9947 338.764 56.976V62H337.42V57.184C337.42 56.416 337.244 55.8667 336.892 55.536C336.55 55.2053 336.06 55.04 335.42 55.04C334.993 55.04 334.609 55.1627 334.268 55.408C333.926 55.6533 333.66 55.9733 333.468 56.368C333.286 56.7627 333.196 57.1787 333.196 57.616V62H331.836V54.064ZM346.413 51.84H343.197V50.544H350.973V51.84H347.773V62H346.413V51.84ZM354.637 62.256C353.869 62.256 353.181 62.0747 352.573 61.712C351.976 61.3493 351.507 60.848 351.165 60.208C350.824 59.568 350.653 58.8427 350.653 58.032C350.653 57.264 350.813 56.56 351.133 55.92C351.453 55.2693 351.907 54.7573 352.493 54.384C353.091 54 353.773 53.808 354.541 53.808C355.309 53.808 355.981 53.984 356.557 54.336C357.144 54.6773 357.592 55.1627 357.901 55.792C358.211 56.4213 358.365 57.1467 358.365 57.968C358.365 58.1173 358.355 58.224 358.333 58.288H352.029C352.051 58.8853 352.195 59.392 352.461 59.808C352.728 60.2133 353.059 60.5173 353.453 60.72C353.859 60.9227 354.275 61.024 354.701 61.024C355.704 61.024 356.477 60.5333 357.021 59.552L358.221 60.128C357.88 60.768 357.405 61.2853 356.797 61.68C356.2 62.064 355.48 62.256 354.637 62.256ZM356.925 57.152C356.904 56.832 356.813 56.512 356.653 56.192C356.493 55.872 356.232 55.6 355.869 55.376C355.517 55.152 355.069 55.04 354.525 55.04C353.917 55.04 353.395 55.232 352.957 55.616C352.52 56 352.243 56.512 352.125 57.152H356.925ZM363.576 62.256C362.808 62.256 362.115 62.0747 361.496 61.712C360.878 61.3387 360.392 60.832 360.04 60.192C359.699 59.5413 359.528 58.8213 359.528 58.032C359.528 57.232 359.699 56.512 360.04 55.872C360.392 55.232 360.878 54.7307 361.496 54.368C362.115 53.9947 362.808 53.808 363.576 53.808C364.44 53.808 365.166 54.016 365.752 54.432C366.339 54.848 366.766 55.3867 367.032 56.048L365.8 56.576C365.598 56.0747 365.299 55.696 364.904 55.44C364.52 55.1733 364.051 55.04 363.496 55.04C363.048 55.04 362.622 55.168 362.216 55.424C361.822 55.6693 361.502 56.0213 361.256 56.48C361.011 56.928 360.888 57.4453 360.888 58.032C360.888 58.608 361.011 59.1253 361.256 59.584C361.502 60.0427 361.822 60.4 362.216 60.656C362.622 60.9013 363.048 61.024 363.496 61.024C364.062 61.024 364.547 60.8907 364.952 60.624C365.358 60.3573 365.662 59.9787 365.864 59.488L367.064 60C366.798 60.6613 366.366 61.2053 365.768 61.632C365.171 62.048 364.44 62.256 363.576 62.256ZM368.523 50.544H369.883V54.128L369.819 55.264H369.883C370.107 54.848 370.454 54.5013 370.923 54.224C371.403 53.9467 371.921 53.808 372.475 53.808C373.478 53.808 374.225 54.096 374.715 54.672C375.217 55.2373 375.467 56.0053 375.467 56.976V62H374.123V57.184C374.123 56.448 373.942 55.9093 373.579 55.568C373.227 55.216 372.753 55.04 372.155 55.04C371.729 55.04 371.339 55.168 370.987 55.424C370.646 55.6693 370.374 56 370.171 56.416C369.979 56.8213 369.883 57.2427 369.883 57.68V62H368.523V50.544ZM377.398 54.064H378.694V55.248H378.758C378.982 54.8427 379.334 54.5013 379.814 54.224C380.294 53.9467 380.806 53.808 381.35 53.808C382.321 53.808 383.057 54.0907 383.558 54.656C384.07 55.2213 384.326 55.9947 384.326 56.976V62H382.982V57.184C382.982 56.416 382.806 55.8667 382.454 55.536C382.113 55.2053 381.622 55.04 380.982 55.04C380.556 55.04 380.172 55.1627 379.83 55.408C379.489 55.6533 379.222 55.9733 379.03 56.368C378.849 56.7627 378.758 57.1787 378.758 57.616V62H377.398V54.064ZM389.874 62.256C389.095 62.256 388.396 62.0747 387.778 61.712C387.159 61.3387 386.674 60.832 386.322 60.192C385.98 59.5413 385.81 58.8213 385.81 58.032C385.81 57.2427 385.98 56.528 386.322 55.888C386.674 55.2373 387.159 54.7307 387.778 54.368C388.396 53.9947 389.095 53.808 389.874 53.808C390.652 53.808 391.351 53.9947 391.97 54.368C392.599 54.7307 393.084 55.2373 393.426 55.888C393.778 56.528 393.954 57.2427 393.954 58.032C393.954 58.8213 393.778 59.5413 393.426 60.192C393.084 60.832 392.599 61.3387 391.97 61.712C391.351 62.0747 390.652 62.256 389.874 62.256ZM389.874 61.024C390.354 61.024 390.802 60.9013 391.218 60.656C391.634 60.4107 391.964 60.064 392.21 59.616C392.466 59.1573 392.594 58.6293 392.594 58.032C392.594 57.4347 392.466 56.912 392.21 56.464C391.964 56.0053 391.634 55.6533 391.218 55.408C390.802 55.1627 390.354 55.04 389.874 55.04C389.404 55.04 388.962 55.1627 388.546 55.408C388.13 55.6533 387.794 56.0053 387.538 56.464C387.292 56.912 387.17 57.4347 387.17 58.032C387.17 58.6293 387.292 59.1573 387.538 59.616C387.794 60.064 388.13 60.4107 388.546 60.656C388.962 60.9013 389.404 61.024 389.874 61.024ZM395.414 50.544H396.774V62H395.414V50.544ZM402.296 62.256C401.517 62.256 400.818 62.0747 400.2 61.712C399.581 61.3387 399.096 60.832 398.743 60.192C398.402 59.5413 398.232 58.8213 398.232 58.032C398.232 57.2427 398.402 56.528 398.743 55.888C399.096 55.2373 399.581 54.7307 400.2 54.368C400.818 53.9947 401.517 53.808 402.296 53.808C403.074 53.808 403.773 53.9947 404.392 54.368C405.021 54.7307 405.506 55.2373 405.848 55.888C406.2 56.528 406.376 57.2427 406.376 58.032C406.376 58.8213 406.2 59.5413 405.848 60.192C405.506 60.832 405.021 61.3387 404.392 61.712C403.773 62.0747 403.074 62.256 402.296 62.256ZM402.296 61.024C402.776 61.024 403.224 60.9013 403.64 60.656C404.056 60.4107 404.386 60.064 404.632 59.616C404.888 59.1573 405.016 58.6293 405.016 58.032C405.016 57.4347 404.888 56.912 404.632 56.464C404.386 56.0053 404.056 55.6533 403.64 55.408C403.224 55.1627 402.776 55.04 402.296 55.04C401.826 55.04 401.384 55.1627 400.968 55.408C400.552 55.6533 400.216 56.0053 399.96 56.464C399.714 56.912 399.592 57.4347 399.592 58.032C399.592 58.6293 399.714 59.1573 399.96 59.616C400.216 60.064 400.552 60.4107 400.968 60.656C401.384 60.9013 401.826 61.024 402.296 61.024ZM411.402 65.712C410.442 65.712 409.658 65.4827 409.05 65.024C408.442 64.5653 408.031 64.032 407.818 63.424L409.082 62.896C409.242 63.3653 409.525 63.744 409.93 64.032C410.346 64.3307 410.837 64.48 411.402 64.48C412.245 64.48 412.89 64.2293 413.338 63.728C413.797 63.2373 414.026 62.5493 414.026 61.664V60.816H413.962C413.706 61.2213 413.338 61.5573 412.858 61.824C412.378 62.0907 411.834 62.224 411.226 62.224C410.554 62.224 409.93 62.0427 409.354 61.68C408.778 61.3173 408.319 60.816 407.978 60.176C407.637 59.536 407.466 58.816 407.466 58.016C407.466 57.216 407.637 56.496 407.978 55.856C408.319 55.216 408.778 54.7147 409.354 54.352C409.93 53.9893 410.554 53.808 411.226 53.808C411.834 53.808 412.378 53.9413 412.858 54.208C413.338 54.4747 413.706 54.8107 413.962 55.216H414.026V54.064H415.338V61.68C415.338 62.5547 415.167 63.296 414.826 63.904C414.485 64.512 414.015 64.9653 413.418 65.264C412.821 65.5627 412.149 65.712 411.402 65.712ZM411.434 60.992C411.903 60.992 412.335 60.8747 412.73 60.64C413.125 60.3947 413.439 60.048 413.674 59.6C413.919 59.152 414.042 58.624 414.042 58.016C414.042 57.408 413.919 56.88 413.674 56.432C413.439 55.9733 413.125 55.6267 412.73 55.392C412.335 55.1573 411.903 55.04 411.434 55.04C410.965 55.04 410.533 55.1627 410.138 55.408C409.743 55.6427 409.423 55.984 409.178 56.432C408.943 56.88 408.826 57.408 408.826 58.016C408.826 58.624 408.943 59.152 409.178 59.6C409.423 60.048 409.743 60.3947 410.138 60.64C410.533 60.8747 410.965 60.992 411.434 60.992ZM419.736 61.488L416.44 54.064H417.912L420.376 59.904H420.408L422.792 54.064H424.264L419.304 65.456H417.912L419.736 61.488ZM429.07 56.48H434.158V57.6H429.07V56.48ZM438.443 50.544H439.931L442.763 58.848L443.163 59.984H443.227L443.627 58.848L446.571 50.544H448.075L443.883 62H442.491L438.443 50.544ZM449.776 52.4C449.51 52.4 449.28 52.304 449.088 52.112C448.896 51.92 448.8 51.6907 448.8 51.424C448.8 51.1573 448.896 50.928 449.088 50.736C449.28 50.544 449.51 50.448 449.776 50.448C450.043 50.448 450.272 50.544 450.464 50.736C450.656 50.928 450.752 51.1573 450.752 51.424C450.752 51.6907 450.656 51.92 450.464 52.112C450.283 52.304 450.054 52.4 449.776 52.4ZM449.104 54.064H450.464V62H449.104V54.064ZM455.355 62.256C454.512 62.256 453.797 62.0427 453.211 61.616C452.624 61.1893 452.213 60.6613 451.979 60.032L453.195 59.504C453.397 60.0053 453.691 60.3893 454.075 60.656C454.469 60.9227 454.896 61.056 455.355 61.056C455.867 61.056 456.288 60.944 456.619 60.72C456.96 60.496 457.131 60.224 457.131 59.904C457.131 59.5947 457.003 59.3387 456.747 59.136C456.501 58.9333 456.075 58.7573 455.467 58.608L454.379 58.336C453.781 58.1973 453.269 57.9467 452.843 57.584C452.427 57.2213 452.219 56.7413 452.219 56.144C452.219 55.6533 452.357 55.232 452.635 54.88C452.923 54.528 453.301 54.2613 453.771 54.08C454.24 53.8987 454.752 53.808 455.307 53.808C455.989 53.808 456.608 53.968 457.163 54.288C457.728 54.5973 458.128 55.04 458.363 55.616L457.163 56.128C456.992 55.744 456.731 55.4613 456.379 55.28C456.037 55.0987 455.653 55.008 455.227 55.008C454.811 55.008 454.432 55.1093 454.091 55.312C453.76 55.5147 453.595 55.776 453.595 56.096C453.595 56.3733 453.701 56.592 453.914 56.752C454.139 56.912 454.491 57.056 454.971 57.184L456.155 57.472C456.944 57.6747 457.531 57.9787 457.915 58.384C458.309 58.7787 458.507 59.2533 458.507 59.808C458.507 60.2667 458.373 60.6827 458.107 61.056C457.84 61.4293 457.467 61.7227 456.987 61.936C456.507 62.1493 455.963 62.256 455.355 62.256ZM462.615 62.256C462.039 62.256 461.516 62.144 461.047 61.92C460.588 61.6853 460.226 61.3653 459.959 60.96C459.703 60.544 459.575 60.08 459.575 59.568C459.575 58.7253 459.89 58.0693 460.519 57.6C461.159 57.1307 461.975 56.896 462.967 56.896C463.458 56.896 463.9 56.9493 464.295 57.056C464.69 57.1627 465.004 57.28 465.239 57.408V56.992C465.239 56.608 465.138 56.2667 464.935 55.968C464.743 55.6587 464.482 55.424 464.151 55.264C463.82 55.0933 463.463 55.008 463.079 55.008C462.172 55.008 461.479 55.376 460.999 56.112L459.863 55.36C460.204 54.8693 460.642 54.4907 461.175 54.224C461.719 53.9467 462.332 53.808 463.015 53.808C464.103 53.808 464.962 54.1013 465.591 54.688C466.22 55.2747 466.535 56.064 466.535 57.056V62H465.239V60.832H465.175C464.919 61.2373 464.572 61.5787 464.135 61.856C463.698 62.1227 463.191 62.256 462.615 62.256ZM462.727 61.056C463.154 61.056 463.559 60.944 463.943 60.72C464.327 60.496 464.636 60.192 464.871 59.808C465.116 59.424 465.239 59.008 465.239 58.56C464.642 58.176 463.954 57.984 463.175 57.984C462.503 57.984 461.964 58.1387 461.559 58.448C461.164 58.7467 460.967 59.1307 460.967 59.6C460.967 60.0267 461.143 60.3787 461.495 60.656C461.847 60.9227 462.258 61.056 462.727 61.056ZM468.398 50.544H469.758V57.744L473.39 54.064H475.134V54.128L472.046 57.216L475.278 61.936V62H473.662L471.086 58.16L469.758 59.488V62H468.398V50.544ZM476.305 50.544H477.664V54.128L477.601 55.264H477.664C477.889 54.848 478.235 54.5013 478.705 54.224C479.185 53.9467 479.702 53.808 480.257 53.808C481.259 53.808 482.006 54.096 482.497 54.672C482.998 55.2373 483.249 56.0053 483.249 56.976V62H481.905V57.184C481.905 56.448 481.723 55.9093 481.361 55.568C481.009 55.216 480.534 55.04 479.937 55.04C479.51 55.04 479.121 55.168 478.769 55.424C478.427 55.6693 478.155 56 477.953 56.416C477.761 56.8213 477.664 57.2427 477.664 57.68V62H476.305V50.544ZM487.677 62.256C487.101 62.256 486.579 62.144 486.109 61.92C485.651 61.6853 485.288 61.3653 485.021 60.96C484.765 60.544 484.637 60.08 484.637 59.568C484.637 58.7253 484.952 58.0693 485.581 57.6C486.221 57.1307 487.037 56.896 488.029 56.896C488.52 56.896 488.963 56.9493 489.357 57.056C489.752 57.1627 490.067 57.28 490.301 57.408V56.992C490.301 56.608 490.2 56.2667 489.997 55.968C489.805 55.6587 489.544 55.424 489.213 55.264C488.883 55.0933 488.525 55.008 488.141 55.008C487.235 55.008 486.541 55.376 486.061 56.112L484.925 55.36C485.267 54.8693 485.704 54.4907 486.237 54.224C486.781 53.9467 487.395 53.808 488.077 53.808C489.165 53.808 490.024 54.1013 490.653 54.688C491.283 55.2747 491.597 56.064 491.597 57.056V62H490.301V60.832H490.237C489.981 61.2373 489.635 61.5787 489.197 61.856C488.76 62.1227 488.253 62.256 487.677 62.256ZM487.789 61.056C488.216 61.056 488.621 60.944 489.005 60.72C489.389 60.496 489.699 60.192 489.933 59.808C490.179 59.424 490.301 59.008 490.301 58.56C489.704 58.176 489.016 57.984 488.237 57.984C487.565 57.984 487.027 58.1387 486.621 58.448C486.227 58.7467 486.029 59.1307 486.029 59.6C486.029 60.0267 486.205 60.3787 486.557 60.656C486.909 60.9227 487.32 61.056 487.789 61.056ZM493.397 54.064H494.693V55.232H494.757C495.013 54.8267 495.381 54.4907 495.861 54.224C496.341 53.9467 496.895 53.808 497.525 53.808C498.207 53.808 498.837 53.9947 499.413 54.368C499.989 54.7307 500.447 55.232 500.789 55.872C501.13 56.512 501.301 57.232 501.301 58.032C501.301 58.832 501.13 59.552 500.789 60.192C500.447 60.832 499.989 61.3387 499.413 61.712C498.837 62.0747 498.207 62.256 497.525 62.256C496.895 62.256 496.335 62.1227 495.845 61.856C495.365 61.5787 495.002 61.232 494.757 60.816H494.693L494.757 61.92V65.456H493.397V54.064ZM497.317 61.024C497.786 61.024 498.218 60.9013 498.613 60.656C499.018 60.4107 499.338 60.064 499.573 59.616C499.818 59.1573 499.941 58.6293 499.941 58.032C499.941 57.4347 499.818 56.912 499.573 56.464C499.338 56.0053 499.018 55.6533 498.613 55.408C498.218 55.1627 497.786 55.04 497.317 55.04C496.847 55.04 496.41 55.1627 496.005 55.408C495.61 55.6427 495.29 55.9893 495.045 56.448C494.81 56.896 494.693 57.424 494.693 58.032C494.693 58.6293 494.81 59.1573 495.045 59.616C495.29 60.0747 495.61 60.4267 496.005 60.672C496.41 60.9067 496.847 61.024 497.317 61.024ZM505.412 62.256C504.836 62.256 504.313 62.144 503.844 61.92C503.385 61.6853 503.022 61.3653 502.756 60.96C502.5 60.544 502.372 60.08 502.372 59.568C502.372 58.7253 502.686 58.0693 503.316 57.6C503.956 57.1307 504.772 56.896 505.764 56.896C506.254 56.896 506.697 56.9493 507.092 57.056C507.486 57.1627 507.801 57.28 508.036 57.408V56.992C508.036 56.608 507.934 56.2667 507.732 55.968C507.54 55.6587 507.278 55.424 506.948 55.264C506.617 55.0933 506.26 55.008 505.876 55.008C504.969 55.008 504.276 55.376 503.796 56.112L502.66 55.36C503.001 54.8693 503.438 54.4907 503.972 54.224C504.516 53.9467 505.129 53.808 505.812 53.808C506.9 53.808 507.758 54.1013 508.388 54.688C509.017 55.2747 509.332 56.064 509.332 57.056V62H508.036V60.832H507.972C507.716 61.2373 507.369 61.5787 506.932 61.856C506.494 62.1227 505.988 62.256 505.412 62.256ZM505.524 61.056C505.95 61.056 506.356 60.944 506.74 60.72C507.124 60.496 507.433 60.192 507.668 59.808C507.913 59.424 508.036 59.008 508.036 58.56C507.438 58.176 506.75 57.984 505.972 57.984C505.3 57.984 504.761 58.1387 504.356 58.448C503.961 58.7467 503.764 59.1307 503.764 59.6C503.764 60.0267 503.94 60.3787 504.292 60.656C504.644 60.9227 505.054 61.056 505.524 61.056ZM514.095 62.128C513.775 62.128 513.476 62.0747 513.199 61.968C512.932 61.8613 512.703 61.7173 512.511 61.536C512.298 61.3333 512.138 61.0987 512.031 60.832C511.935 60.5547 511.887 60.2293 511.887 59.856V55.296H510.479V54.064H511.887V51.696H513.231V54.064H515.183V55.296H513.231V59.52C513.231 59.968 513.322 60.2987 513.503 60.512C513.706 60.7467 513.983 60.864 514.335 60.864C514.666 60.864 514.954 60.7893 515.199 60.64V61.952C515.028 62.016 514.863 62.0587 514.703 62.08C514.554 62.112 514.351 62.128 514.095 62.128ZM516.851 54.064H518.147V55.248H518.211C518.435 54.8427 518.787 54.5013 519.267 54.224C519.747 53.9467 520.259 53.808 520.803 53.808C521.774 53.808 522.51 54.0907 523.011 54.656C523.523 55.2213 523.779 55.9947 523.779 56.976V62H522.435V57.184C522.435 56.416 522.259 55.8667 521.907 55.536C521.566 55.2053 521.075 55.04 520.435 55.04C520.009 55.04 519.625 55.1627 519.283 55.408C518.942 55.6533 518.675 55.9733 518.483 56.368C518.302 56.7627 518.211 57.1787 518.211 57.616V62H516.851V54.064ZM528.209 62.256C527.633 62.256 527.11 62.144 526.641 61.92C526.182 61.6853 525.819 61.3653 525.553 60.96C525.297 60.544 525.169 60.08 525.169 59.568C525.169 58.7253 525.483 58.0693 526.113 57.6C526.753 57.1307 527.569 56.896 528.561 56.896C529.051 56.896 529.494 56.9493 529.889 57.056C530.283 57.1627 530.598 57.28 530.833 57.408V56.992C530.833 56.608 530.731 56.2667 530.529 55.968C530.337 55.6587 530.075 55.424 529.745 55.264C529.414 55.0933 529.057 55.008 528.673 55.008C527.766 55.008 527.073 55.376 526.593 56.112L525.457 55.36C525.798 54.8693 526.235 54.4907 526.769 54.224C527.313 53.9467 527.926 53.808 528.609 53.808C529.697 53.808 530.555 54.1013 531.185 54.688C531.814 55.2747 532.129 56.064 532.129 57.056V62H530.833V60.832H530.769C530.513 61.2373 530.166 61.5787 529.729 61.856C529.291 62.1227 528.785 62.256 528.209 62.256ZM528.321 61.056C528.747 61.056 529.153 60.944 529.537 60.72C529.921 60.496 530.23 60.192 530.465 59.808C530.71 59.424 530.833 59.008 530.833 58.56C530.235 58.176 529.547 57.984 528.769 57.984C528.097 57.984 527.558 58.1387 527.153 58.448C526.758 58.7467 526.561 59.1307 526.561 59.6C526.561 60.0267 526.737 60.3787 527.089 60.656C527.441 60.9227 527.851 61.056 528.321 61.056ZM533.992 54.064H535.288V55.248H535.352C535.576 54.8427 535.923 54.5013 536.392 54.224C536.872 53.9467 537.357 53.808 537.848 53.808C538.445 53.808 538.957 53.952 539.384 54.24C539.821 54.5173 540.136 54.9013 540.328 55.392C540.627 54.912 541.011 54.528 541.48 54.24C541.949 53.952 542.488 53.808 543.096 53.808C544.024 53.808 544.723 54.0907 545.192 54.656C545.661 55.2213 545.896 56 545.896 56.992V62H544.536V57.2C544.536 56.4213 544.387 55.8667 544.088 55.536C543.8 55.2053 543.352 55.04 542.744 55.04C542.339 55.04 541.971 55.1627 541.64 55.408C541.32 55.6427 541.069 55.9573 540.888 56.352C540.707 56.7467 540.616 57.1627 540.616 57.6V62H539.272V57.2C539.272 56.4213 539.123 55.8667 538.824 55.536C538.525 55.2053 538.077 55.04 537.48 55.04C537.064 55.04 536.696 55.1627 536.376 55.408C536.056 55.6533 535.805 55.9733 535.624 56.368C535.443 56.7627 535.352 57.184 535.352 57.632V62H533.992V54.064Z" fill="#484F56"/>
<path d="M117.461 26.6457C115.461 25.3217 113.923 23.6666 112.692 21.5151C111.461 19.3636 111 16.8811 111 14.2331C111 11.5851 111.615 9.1026 112.692 6.95108C113.923 4.79952 115.461 2.979 117.461 1.82049C119.461 0.496484 121.615 0 124.077 0C125.924 0 127.77 0.330978 129.308 0.992989C131 1.65499 132.231 2.64801 133.308 3.97201L131.154 6.28906C130.385 5.29601 129.308 4.4685 128.077 3.8065C126.847 3.31 125.462 2.979 124.077 2.979C122.231 2.979 120.692 3.4755 119.154 4.30301C117.615 5.29602 116.385 6.62007 115.462 8.27502C114.538 9.93007 114.077 11.9161 114.077 14.0676C114.077 16.2192 114.538 18.2051 115.462 19.8602C116.385 21.5151 117.615 22.8392 119.154 23.8322C120.692 24.8251 122.385 25.1561 124.077 25.1561C125.77 25.1561 127.154 24.8251 128.385 24.3287C129.462 23.8321 130.539 23.0046 131.308 22.0116C131.923 21.3497 132.385 20.3566 132.847 19.3636C133.154 18.3706 133.462 17.2121 133.462 16.0536H124.077V13.0746H136.231C136.385 13.7365 136.385 14.3987 136.385 15.0606C136.385 16.7156 136.077 18.3707 135.616 20.0256C135.154 21.6807 134.385 23.0047 133.308 24.1632C130.847 26.8112 127.77 28.3007 123.923 28.3007C121.615 28.4662 119.461 27.9697 117.461 26.6457Z" fill="#5F6368"/>
<path d="M143.155 27.1426C141.771 26.3151 140.694 24.9911 139.925 23.5016C139.155 22.0121 138.848 20.1916 138.848 18.3711C138.848 16.5505 139.155 14.7299 139.925 13.2404C140.694 11.7509 141.771 10.4269 143.155 9.59943C144.54 8.77196 146.078 8.27539 147.771 8.27539C149.463 8.27539 151.001 8.77196 152.386 9.59943C153.771 10.4269 154.848 11.7509 155.617 13.2404C156.386 14.7299 156.694 16.5505 156.694 18.3711C156.694 20.1916 156.386 22.0121 155.617 23.5016C154.848 24.9911 153.771 26.3151 152.386 27.1426C151.001 27.97 149.463 28.4666 147.771 28.4666C146.078 28.4666 144.386 28.1356 143.155 27.1426ZM150.694 24.66C151.617 23.998 152.386 23.1705 152.848 22.1775C153.463 21.019 153.617 19.8605 153.617 18.3711C153.617 16.8816 153.309 15.723 152.848 14.5645C152.232 13.406 151.617 12.5784 150.694 12.082C149.771 11.4199 148.848 11.2545 147.771 11.2545C146.694 11.2545 145.771 11.5855 144.848 12.082C143.925 12.744 143.155 13.5715 142.694 14.5645C142.078 15.723 141.925 16.8816 141.925 18.3711C141.925 19.8605 142.232 21.019 142.694 22.1775C143.309 23.336 143.925 24.1636 144.848 24.66C145.771 25.3221 146.694 25.4875 147.771 25.4875C148.848 25.6531 149.771 25.3221 150.694 24.66Z" fill="#5F6368"/>
<path d="M163.155 27.1426C161.771 26.3151 160.694 24.9911 159.925 23.5016C159.155 22.0121 158.848 20.1916 158.848 18.3711C158.848 16.5505 159.155 14.7299 159.925 13.2404C160.694 11.7509 161.771 10.4269 163.155 9.59943C164.54 8.77196 166.078 8.27539 167.771 8.27539C169.463 8.27539 171.001 8.77196 172.386 9.59943C173.771 10.4269 174.848 11.7509 175.617 13.2404C176.386 14.7299 176.694 16.5505 176.694 18.3711C176.694 20.1916 176.386 22.0121 175.617 23.5016C174.848 24.9911 173.771 26.3151 172.386 27.1426C171.001 27.97 169.463 28.4666 167.771 28.4666C166.078 28.4666 164.54 28.1356 163.155 27.1426ZM170.848 24.66C171.771 23.998 172.54 23.1705 173.001 22.1775C173.617 21.019 173.771 19.8605 173.771 18.3711C173.771 16.8816 173.463 15.723 173.001 14.5645C172.386 13.406 171.771 12.5784 170.848 12.082C169.925 11.4199 169.001 11.2545 167.925 11.2545C166.848 11.2545 165.925 11.5855 165.001 12.082C164.078 12.744 163.309 13.5715 162.848 14.5645C162.232 15.723 162.078 16.8816 162.078 18.3711C162.078 19.8605 162.386 21.019 162.848 22.1775C163.463 23.336 164.078 24.1636 165.001 24.66C165.925 25.3221 166.848 25.4875 167.925 25.4875C168.848 25.6531 169.925 25.3221 170.848 24.66Z" fill="#5F6368"/>
<path d="M182.386 35.086C181.001 33.9276 180.078 32.7691 179.617 31.2795L182.386 29.9555C182.694 31.114 183.309 31.9415 184.232 32.6035C185.155 33.2655 186.232 33.5965 187.463 33.5965C189.309 33.5965 190.694 32.9345 191.771 31.776C192.848 30.6175 193.309 28.9625 193.309 26.811V24.8249H193.155C192.54 25.818 191.771 26.6455 190.694 27.3075C189.617 27.9695 188.386 28.3005 187.155 28.3005C185.617 28.3005 184.232 27.804 183.001 26.9764C181.771 26.149 180.694 24.9905 179.925 23.3354C179.155 21.8459 178.848 20.0254 178.848 18.2049C178.848 16.2189 179.155 14.5639 179.925 13.0744C180.694 11.5848 181.771 10.2609 183.001 9.43331C184.232 8.60584 185.617 8.10938 187.155 8.10938C188.54 8.10938 189.771 8.44039 190.694 9.10241C191.771 9.76432 192.54 10.5919 193.155 11.5849H193.309V8.7714H196.232V26.9764C196.232 29.128 195.925 30.783 195.155 32.2725C194.386 33.762 193.309 34.755 192.078 35.5825C190.694 36.2445 189.309 36.5755 187.617 36.5755C185.463 36.7411 183.771 36.2445 182.386 35.086ZM190.54 24.6595C191.463 24.163 192.078 23.3354 192.694 22.1769C193.155 21.1839 193.463 19.86 193.463 18.3705C193.463 16.8809 193.155 15.7224 192.694 14.5639C192.232 13.4053 191.463 12.5779 190.54 12.0814C189.617 11.5848 188.694 11.2538 187.617 11.2538C186.54 11.2538 185.617 11.5848 184.694 12.0814C183.771 12.5779 183.155 13.4053 182.54 14.5639C182.078 15.5568 181.771 16.8809 181.771 18.3705C181.771 19.86 182.078 21.0185 182.54 22.1769C183.002 23.17 183.771 23.9975 184.694 24.6595C185.617 25.1559 186.54 25.4869 187.617 25.4869C188.694 25.6525 189.617 25.3215 190.54 24.6595Z" fill="#5F6368"/>
<path d="M202.999 0.662109H199.922V27.9698H202.999V0.662109Z" fill="#5F6368"/>
<path d="M209.924 27.1426C208.54 26.3151 207.617 25.1565 206.847 23.5016C206.078 22.0121 205.77 20.1916 205.77 18.3711C205.77 16.5505 206.078 14.8955 206.847 13.2404C207.617 11.7509 208.54 10.4269 209.924 9.59943C211.309 8.77196 212.694 8.27539 214.386 8.27539C216.078 8.27539 217.617 8.6064 218.847 9.43387C220.078 10.2615 221.155 11.4199 221.771 12.9094C222.386 14.3989 222.847 16.054 222.847 18.04C222.847 18.3711 222.847 18.702 222.847 18.8675H208.847C208.847 20.357 209.155 21.5156 209.77 22.5085C210.386 23.5016 211.155 24.1636 211.924 24.66C212.847 25.1565 213.77 25.3221 214.694 25.3221C216.847 25.3221 218.694 24.1636 219.77 21.8465L222.386 23.1705C221.617 24.66 220.54 25.9841 219.309 26.8116C217.924 27.8046 216.386 28.1356 214.54 28.1356C212.847 28.4666 211.309 28.1356 209.924 27.1426ZM219.617 16.385C219.617 15.5575 219.309 14.8955 219.001 14.068C218.694 13.2404 218.078 12.5784 217.309 12.082C216.54 11.5855 215.463 11.2545 214.232 11.2545C212.847 11.2545 211.77 11.7509 210.847 12.5785C209.924 13.5715 209.309 14.7299 209.001 16.2194H219.617V16.385Z" fill="#5F6368"/>
<path d="M234.23 0.662109H241.923C244.538 0.662109 246.846 1.32412 248.692 2.31712C250.692 3.47563 252.077 5.13063 253.153 7.11664C254.23 9.10271 254.692 11.5852 254.692 14.2332C254.692 16.8813 254.23 19.1983 253.153 21.3498C252.077 23.3357 250.692 24.9908 248.692 26.1493C246.692 27.3078 244.538 27.8043 241.923 27.8043H234.23V0.662109ZM241.923 24.8253C244.846 24.8253 247.307 23.8323 249 22.0118C250.692 20.1912 251.615 17.5432 251.615 14.2332C251.615 10.9232 250.692 8.27513 249 6.45462C247.307 4.63414 244.846 3.64114 241.923 3.64114H237.307V24.8253H241.923Z" fill="#5F6368"/>
<path d="M261.615 27.1426C260.23 26.3151 259.307 25.1565 258.538 23.5016C257.769 22.0121 257.461 20.1916 257.461 18.3711C257.461 16.5505 257.769 14.8955 258.538 13.2404C259.307 11.7509 260.23 10.4269 261.615 9.59943C262.999 8.77196 264.384 8.27539 266.076 8.27539C267.769 8.27539 269.307 8.6064 270.538 9.43387C271.769 10.2615 272.845 11.4199 273.461 12.9094C274.076 14.3989 274.538 16.054 274.538 18.04C274.538 18.3711 274.538 18.702 274.538 18.8675H260.538C260.538 20.357 260.845 21.5156 261.461 22.5085C262.076 23.5016 262.845 24.1636 263.615 24.66C264.538 25.1565 265.461 25.3221 266.384 25.3221C268.538 25.3221 270.384 24.1636 271.461 21.8465L274.076 23.1705C273.307 24.66 272.23 25.9841 270.999 26.8116C269.615 27.8046 268.076 28.1356 266.23 28.1356C264.538 28.4666 262.999 28.1356 261.615 27.1426ZM271.307 16.385C271.307 15.5575 270.999 14.8955 270.692 14.068C270.384 13.2404 269.769 12.5784 268.999 12.082C268.23 11.5855 267.153 11.2545 265.922 11.2545C264.538 11.2545 263.461 11.7509 262.538 12.5785C261.615 13.5715 260.999 14.7299 260.692 16.2194H271.307V16.385Z" fill="#5F6368"/>
<path d="M275.152 8.9375H278.383L283.768 24.1637H283.921L289.306 8.9375H292.537L285.306 27.9701H282.229L275.152 8.9375Z" fill="#5F6368"/>
<path d="M298.076 27.1426C296.691 26.3151 295.768 25.1565 294.999 23.5016C294.229 22.0121 293.922 20.1916 293.922 18.3711C293.922 16.5505 294.229 14.8955 294.999 13.2404C295.768 11.7509 296.691 10.4269 298.076 9.59943C299.46 8.77196 300.845 8.27539 302.537 8.27539C304.229 8.27539 305.768 8.6064 306.999 9.43387C308.229 10.2615 309.306 11.4199 309.922 12.9094C310.537 14.3989 310.999 16.054 310.999 18.04C310.999 18.3711 310.999 18.702 310.999 18.8675H296.845C296.845 20.357 297.153 21.5156 297.768 22.5085C298.383 23.5016 299.153 24.1636 299.922 24.66C300.845 25.1565 301.768 25.3221 302.691 25.3221C304.845 25.3221 306.691 24.1636 307.768 21.8465L310.383 23.1705C309.614 24.66 308.537 25.9841 307.306 26.8116C305.922 27.8046 304.383 28.1356 302.537 28.1356C300.845 28.4666 299.306 28.1356 298.076 27.1426ZM307.614 16.385C307.614 15.5575 307.306 14.8955 306.999 14.068C306.691 13.2404 306.076 12.5784 305.306 12.082C304.537 11.5855 303.46 11.2545 302.229 11.2545C300.845 11.2545 299.768 11.7509 298.845 12.5785C297.922 13.5715 297.306 14.7299 296.999 16.2194H307.614V16.385Z" fill="#5F6368"/>
<path d="M316.999 0.662109H313.922V27.9698H316.999V0.662109Z" fill="#5F6368"/>
<path d="M324.078 27.1426C322.694 26.3151 321.617 24.9911 320.847 23.5016C320.078 22.0121 319.77 20.1916 319.77 18.3711C319.77 16.5505 320.078 14.7299 320.847 13.2404C321.617 11.7509 322.694 10.4269 324.078 9.59943C325.463 8.77196 327.001 8.27539 328.694 8.27539C330.386 8.27539 331.924 8.77196 333.309 9.59943C334.694 10.4269 335.77 11.7509 336.54 13.2404C337.309 14.7299 337.617 16.5505 337.617 18.3711C337.617 20.1916 337.309 22.0121 336.54 23.5016C335.77 24.9911 334.694 26.3151 333.309 27.1426C331.924 27.97 330.386 28.4666 328.694 28.4666C327.001 28.4666 325.463 28.1356 324.078 27.1426ZM331.77 24.66C332.694 23.998 333.463 23.1705 333.924 22.1775C334.54 21.019 334.694 19.8605 334.694 18.3711C334.694 16.8816 334.386 15.723 333.924 14.5645C333.309 13.406 332.694 12.5784 331.77 12.082C330.847 11.4199 329.924 11.2545 328.847 11.2545C327.77 11.2545 326.847 11.5855 325.924 12.082C325.001 12.744 324.232 13.5715 323.77 14.5645C323.155 15.723 323.001 16.8816 323.001 18.3711C323.001 19.8605 323.309 21.019 323.77 22.1775C324.386 23.336 325.001 24.1636 325.924 24.66C326.847 25.3221 327.77 25.4875 328.847 25.4875C329.77 25.6531 330.847 25.3221 331.77 24.66Z" fill="#5F6368"/>
<path d="M340.539 8.93741H343.462V11.7509H343.616C344.231 10.7579 345.001 9.93044 346.077 9.26842C347.154 8.6064 348.385 8.27539 349.77 8.27539C351.308 8.27539 352.693 8.77196 353.924 9.59943C355.154 10.4269 356.231 11.7509 357 13.2404C357.77 14.7299 358.077 16.5505 358.077 18.3711C358.077 20.357 357.77 22.012 357 23.5016C356.231 24.9911 355.154 26.1495 353.924 27.1426C352.693 27.97 351.308 28.4665 349.77 28.4665C348.385 28.4665 347.154 28.1356 346.077 27.4736C345.001 26.8116 344.231 25.9841 343.616 24.9911H343.462L343.616 27.639V36.0796H340.539V8.93741ZM352.077 24.66C353.001 23.998 353.616 23.1705 354.231 22.1775C354.693 21.019 355 19.8605 355 18.3711C355 16.8816 354.693 15.723 354.231 14.5645C353.77 13.406 353.001 12.5784 352.077 12.082C351.154 11.4199 350.231 11.2545 349.154 11.2545C348.077 11.2545 347.154 11.5855 346.231 12.082C345.308 12.5784 344.693 13.406 344.077 14.5645C343.616 15.723 343.308 16.8816 343.308 18.3711C343.308 19.8605 343.616 21.019 344.077 22.1775C344.539 23.336 345.308 24.1636 346.231 24.66C347.154 25.1565 348.077 25.4875 349.154 25.4875C350.231 25.6531 351.154 25.3221 352.077 24.66Z" fill="#5F6368"/>
<path d="M365.001 27.1426C363.617 26.3151 362.694 25.1565 361.925 23.5016C361.155 22.0121 360.848 20.1916 360.848 18.3711C360.848 16.5505 361.155 14.8955 361.925 13.2404C362.694 11.7509 363.617 10.4269 365.001 9.59943C366.386 8.77196 367.771 8.27539 369.463 8.27539C371.155 8.27539 372.694 8.6064 373.925 9.43387C375.155 10.2615 376.232 11.4199 376.848 12.9094C377.463 14.3989 377.925 16.054 377.925 18.04C377.925 18.3711 377.925 18.702 377.925 18.8675H363.925C363.925 20.357 364.232 21.5156 364.848 22.5085C365.463 23.5016 366.232 24.1636 367.001 24.66C367.925 25.1565 368.848 25.3221 369.771 25.3221C371.925 25.3221 373.771 24.1636 374.848 21.8465L377.463 23.1705C376.694 24.66 375.617 25.9841 374.386 26.8116C373.002 27.8046 371.463 28.1356 369.617 28.1356C367.925 28.4666 366.386 28.1356 365.001 27.1426ZM374.694 16.385C374.694 15.5575 374.386 14.8955 374.078 14.068C373.771 13.2404 373.155 12.5784 372.386 12.082C371.617 11.5855 370.54 11.2545 369.309 11.2545C367.925 11.2545 366.848 11.7509 365.925 12.5785C365.002 13.5715 364.386 14.7299 364.078 16.2194H374.694V16.385Z" fill="#5F6368"/>
<path d="M380.848 8.93787H383.771V12.0824H383.925C384.232 11.0894 385.002 10.0964 385.925 9.43444C387.002 8.77242 387.925 8.44141 389.002 8.44141C389.771 8.44141 390.386 8.60686 391.002 8.77242V12.248C390.386 11.917 389.463 11.7514 388.54 11.7514C387.771 11.7514 387.001 12.0824 386.232 12.579C385.463 13.0754 385.002 13.7375 384.54 14.7305C384.078 15.558 383.925 16.551 383.925 17.544V28.1361H380.848V8.93787Z" fill="#5F6368"/>
<path d="M406.539 26.6457C404.539 25.3217 403.001 23.6666 401.77 21.5151C400.539 19.3636 400.078 16.8811 400.078 14.2331C400.078 11.5851 400.693 9.1026 401.77 6.95108C403.001 4.79952 404.539 2.979 406.539 1.82049C408.539 0.496484 410.693 0 413.155 0C415.001 0 416.847 0.330978 418.385 0.992989C420.078 1.65499 421.308 2.64801 422.385 3.97201L420.231 6.28906C419.462 5.29601 418.385 4.4685 417.155 3.8065C415.924 3.31 414.539 2.979 413.155 2.979C411.308 2.979 409.77 3.4755 408.232 4.30301C406.693 5.29602 405.462 6.62007 404.539 8.27502C403.616 9.93007 403.155 11.9161 403.155 14.0676C403.155 16.2192 403.616 18.2051 404.539 19.8602C405.462 21.5151 406.693 22.8392 408.232 23.8322C409.77 24.8251 411.462 25.1561 413.155 25.1561C414.847 25.1561 416.232 24.8251 417.462 24.3287C418.539 23.8321 419.616 23.0046 420.385 22.0116C421.001 21.3497 421.462 20.3566 421.924 19.3636C422.231 18.3706 422.539 17.2121 422.539 16.0536H413.155V13.0746H425.308C425.462 13.7365 425.462 14.3987 425.462 15.0606C425.462 16.7156 425.155 18.3707 424.693 20.0256C424.231 21.6807 423.462 23.0047 422.385 24.1632C419.924 26.8112 416.847 28.3007 413.001 28.3007C410.847 28.4662 408.539 27.9697 406.539 26.6457Z" fill="#5F6368"/>
<path d="M429 8.93787H431.923V12.0824H432.077C432.385 11.0894 433.154 10.0964 434.077 9.43444C435.154 8.77242 436.077 8.44141 437.154 8.44141C437.923 8.44141 438.539 8.60686 439.154 8.77242V12.248C438.539 11.917 437.616 11.7514 436.693 11.7514C435.924 11.7514 435.154 12.0824 434.385 12.579C433.616 13.0754 433.154 13.7375 432.693 14.7305C432.231 15.558 432.077 16.551 432.077 17.544V28.1361H429V8.93787Z" fill="#5F6368"/>
<path d="M443.924 27.1426C442.54 26.3151 441.463 24.9911 440.694 23.5016C439.924 22.0121 439.617 20.1916 439.617 18.3711C439.617 16.5505 439.924 14.7299 440.694 13.2404C441.463 11.7509 442.54 10.4269 443.924 9.59943C445.309 8.77196 446.847 8.27539 448.54 8.27539C450.232 8.27539 451.77 8.77196 453.155 9.59943C454.54 10.4269 455.617 11.7509 456.386 13.2404C457.155 14.7299 457.463 16.5505 457.463 18.3711C457.463 20.1916 457.155 22.0121 456.386 23.5016C455.617 24.9911 454.54 26.3151 453.155 27.1426C451.77 27.97 450.232 28.4666 448.54 28.4666C446.847 28.4666 445.309 28.1356 443.924 27.1426ZM451.617 24.66C452.54 23.998 453.309 23.1705 453.771 22.1775C454.386 21.019 454.54 19.8605 454.54 18.3711C454.54 16.8816 454.232 15.723 453.771 14.5645C453.155 13.406 452.54 12.5784 451.617 12.082C450.694 11.4199 449.771 11.2545 448.694 11.2545C447.617 11.2545 446.694 11.5855 445.77 12.082C444.847 12.744 444.078 13.5715 443.617 14.5645C443.001 15.723 442.847 16.8816 442.847 18.3711C442.847 19.8605 443.155 21.019 443.617 22.1775C444.232 23.336 444.847 24.1636 445.77 24.66C446.694 25.3221 447.617 25.4875 448.694 25.4875C449.617 25.6531 450.694 25.3221 451.617 24.66Z" fill="#5F6368"/>
<path d="M462.076 26.4806C460.999 25.1567 460.383 23.3362 460.383 20.8537V8.9375H463.46V20.3571C463.46 23.8327 464.845 25.6532 467.768 25.6532C468.691 25.6532 469.614 25.3222 470.383 24.8257C471.152 24.1637 471.768 23.5016 472.229 22.5086C472.691 21.5157 472.845 20.5227 472.845 19.5296V9.10306H475.768V27.9701H472.999V25.1566H472.845C472.383 26.1496 471.614 26.9771 470.537 27.6391C469.46 28.3011 468.383 28.6321 467.152 28.6321C464.845 28.4667 463.152 27.8047 462.076 26.4806Z" fill="#5F6368"/>
<path d="M479.617 8.93741H482.54V11.7509H482.694C483.309 10.7579 484.078 9.93044 485.155 9.26842C486.232 8.6064 487.463 8.27539 488.847 8.27539C490.386 8.27539 491.771 8.77196 493.001 9.59943C494.232 10.4269 495.309 11.7509 496.078 13.2404C496.847 14.7299 497.155 16.5505 497.155 18.3711C497.155 20.357 496.847 22.012 496.078 23.5016C495.309 24.9911 494.232 26.1495 493.001 27.1426C491.771 27.97 490.386 28.4665 488.847 28.4665C487.463 28.4665 486.232 28.1356 485.155 27.4736C484.078 26.8116 483.309 25.9841 482.694 24.9911H482.54L482.694 27.639V36.0796H479.617V8.93741ZM491.155 24.66C492.078 23.998 492.694 23.1705 493.309 22.1775C493.771 21.019 494.078 19.8605 494.078 18.3711C494.078 16.8816 493.771 15.723 493.309 14.5645C492.847 13.406 492.078 12.5784 491.155 12.082C490.232 11.4199 489.309 11.2545 488.232 11.2545C487.155 11.2545 486.232 11.5855 485.309 12.082C484.386 12.5784 483.77 13.406 483.155 14.5645C482.694 15.723 482.386 16.8816 482.386 18.3711C482.386 19.8605 482.694 21.019 483.155 22.1775C483.617 23.336 484.386 24.1636 485.309 24.66C486.232 25.1565 487.155 25.4875 488.232 25.4875C489.309 25.6531 490.386 25.3221 491.155 24.66Z" fill="#5F6368"/>
<path d="M501.46 26.9764C500.229 25.9835 499.306 24.6595 498.691 23.17L501.306 21.8459C501.768 23.0044 502.383 23.9975 503.306 24.6595C504.229 25.3215 505.152 25.6525 506.075 25.6525C507.152 25.6525 508.075 25.3215 508.845 24.8249C509.614 24.3285 509.922 23.6664 509.922 22.839C509.922 22.1769 509.614 21.5149 509.152 21.0185C508.537 20.5219 507.614 20.1909 506.229 19.6944L503.768 19.0324C502.383 18.7014 501.306 18.0394 500.383 17.2119C499.46 16.3844 498.999 15.2259 498.999 13.7363C498.999 12.5779 499.306 11.5849 499.922 10.7574C500.537 9.92988 501.306 9.26786 502.383 8.7714C503.46 8.27483 504.537 8.10938 505.768 8.10938C507.306 8.10938 508.691 8.44039 509.922 9.26786C511.152 10.0954 512.075 11.0884 512.537 12.4124L509.922 13.5709C509.614 12.5779 508.999 11.9158 508.229 11.5849C507.46 11.0884 506.537 10.9229 505.614 10.9229C504.691 10.9229 503.922 11.0884 503.152 11.5849C502.383 12.0814 502.075 12.7434 502.075 13.4054C502.075 14.0675 502.383 14.5639 502.845 14.8949C503.306 15.2259 504.075 15.557 505.152 15.888L507.768 16.5499C509.46 17.0464 510.845 17.7084 511.614 18.7014C512.537 19.6944 512.845 20.8529 512.845 22.1769C512.845 23.3354 512.537 24.3285 511.922 25.1559C511.306 25.9834 510.537 26.811 509.46 27.3075C508.383 27.804 507.152 28.135 505.922 28.135C504.383 28.466 502.691 27.9695 501.46 26.9764Z" fill="#5F6368"/>
<path d="M526.22 25.32C524.847 25.32 523.6 24.9867 522.48 24.32C521.36 23.6533 520.48 22.7467 519.84 21.6C519.2 20.4533 518.88 19.2 518.88 17.84C518.88 16.48 519.2 15.2267 519.84 14.08C520.48 12.9333 521.36 12.0267 522.48 11.36C523.6 10.6933 524.847 10.36 526.22 10.36C527.593 10.36 528.84 10.6933 529.96 11.36C531.08 12.0267 531.96 12.9333 532.6 14.08C533.24 15.2267 533.56 16.48 533.56 17.84C533.56 19.2 533.24 20.4533 532.6 21.6C531.96 22.7467 531.08 23.6533 529.96 24.32C528.84 24.9867 527.593 25.32 526.22 25.32ZM526.22 23.7C527.247 23.7 528.187 23.4533 529.04 22.96C529.907 22.4533 530.587 21.76 531.08 20.88C531.587 19.9867 531.84 18.9733 531.84 17.84C531.84 16.7067 531.587 15.7 531.08 14.82C530.587 13.9267 529.907 13.2333 529.04 12.74C528.187 12.2333 527.247 11.98 526.22 11.98C525.193 11.98 524.247 12.2333 523.38 12.74C522.527 13.2333 521.847 13.9267 521.34 14.82C520.847 15.7 520.6 16.7067 520.6 17.84C520.6 18.9733 520.847 19.9867 521.34 20.88C521.847 21.76 522.527 22.4533 523.38 22.96C524.247 23.4533 525.193 23.7 526.22 23.7ZM535.588 15.08H537.208V16.56H537.288C537.568 16.0533 538.008 15.6267 538.608 15.28C539.208 14.9333 539.848 14.76 540.528 14.76C541.741 14.76 542.661 15.1133 543.288 15.82C543.928 16.5267 544.248 17.4933 544.248 18.72V25H542.568V18.98C542.568 18.02 542.348 17.3333 541.908 16.92C541.481 16.5067 540.868 16.3 540.068 16.3C539.534 16.3 539.054 16.4533 538.628 16.76C538.201 17.0667 537.868 17.4667 537.628 17.96C537.401 18.4533 537.288 18.9733 537.288 19.52V25H535.588V15.08ZM557.96 25.32C556.586 25.32 555.333 24.9933 554.2 24.34C553.066 23.6867 552.173 22.7867 551.52 21.64C550.88 20.4933 550.56 19.2267 550.56 17.84C550.56 16.4533 550.88 15.1867 551.52 14.04C552.173 12.8933 553.066 11.9933 554.2 11.34C555.333 10.6867 556.586 10.36 557.96 10.36C559.04 10.36 560.02 10.5667 560.9 10.98C561.793 11.38 562.56 11.9533 563.2 12.7L562 13.88C561.466 13.2267 560.866 12.7467 560.2 12.44C559.546 12.1333 558.8 11.98 557.96 11.98C556.933 11.98 555.986 12.2267 555.12 12.72C554.253 13.2 553.56 13.8867 553.04 14.78C552.533 15.66 552.28 16.68 552.28 17.84C552.28 19 552.533 20.0267 553.04 20.92C553.56 21.8 554.253 22.4867 555.12 22.98C555.986 23.46 556.933 23.7 557.96 23.7C559.706 23.7 561.186 22.9867 562.4 21.56L563.62 22.76C562.966 23.5467 562.153 24.1733 561.18 24.64C560.206 25.0933 559.133 25.32 557.96 25.32ZM568.534 25.32C567.814 25.32 567.161 25.18 566.574 24.9C566.001 24.6067 565.548 24.2067 565.214 23.7C564.894 23.18 564.734 22.6 564.734 21.96C564.734 20.9067 565.128 20.0867 565.914 19.5C566.714 18.9133 567.734 18.62 568.974 18.62C569.588 18.62 570.141 18.6867 570.634 18.82C571.128 18.9533 571.521 19.1 571.814 19.26V18.74C571.814 18.26 571.688 17.8333 571.434 17.46C571.194 17.0733 570.868 16.78 570.454 16.58C570.041 16.3667 569.594 16.26 569.114 16.26C567.981 16.26 567.114 16.72 566.514 17.64L565.094 16.7C565.521 16.0867 566.068 15.6133 566.734 15.28C567.414 14.9333 568.181 14.76 569.034 14.76C570.394 14.76 571.468 15.1267 572.254 15.86C573.041 16.5933 573.434 17.58 573.434 18.82V25H571.814V23.54H571.734C571.414 24.0467 570.981 24.4733 570.434 24.82C569.888 25.1533 569.254 25.32 568.534 25.32ZM568.674 23.82C569.208 23.82 569.714 23.68 570.194 23.4C570.674 23.12 571.061 22.74 571.354 22.26C571.661 21.78 571.814 21.26 571.814 20.7C571.068 20.22 570.208 19.98 569.234 19.98C568.394 19.98 567.721 20.1733 567.214 20.56C566.721 20.9333 566.474 21.4133 566.474 22C566.474 22.5333 566.694 22.9733 567.134 23.32C567.574 23.6533 568.088 23.82 568.674 23.82ZM575.763 15.08H577.383V16.56H577.463C577.743 16.0533 578.177 15.6267 578.763 15.28C579.363 14.9333 579.97 14.76 580.583 14.76C581.33 14.76 581.97 14.94 582.503 15.3C583.05 15.6467 583.443 16.1267 583.683 16.74C584.057 16.14 584.537 15.66 585.123 15.3C585.71 14.94 586.383 14.76 587.143 14.76C588.303 14.76 589.177 15.1133 589.763 15.82C590.35 16.5267 590.643 17.5 590.643 18.74V25H588.943V19C588.943 18.0267 588.757 17.3333 588.383 16.92C588.023 16.5067 587.463 16.3 586.703 16.3C586.197 16.3 585.737 16.4533 585.323 16.76C584.923 17.0533 584.61 17.4467 584.383 17.94C584.157 18.4333 584.043 18.9533 584.043 19.5V25H582.363V19C582.363 18.0267 582.177 17.3333 581.803 16.92C581.43 16.5067 580.87 16.3 580.123 16.3C579.603 16.3 579.143 16.4533 578.743 16.76C578.343 17.0667 578.03 17.4667 577.803 17.96C577.577 18.4533 577.463 18.98 577.463 19.54V25H575.763V15.08ZM592.969 15.08H594.589V16.54H594.669C594.989 16.0333 595.449 15.6133 596.049 15.28C596.649 14.9333 597.342 14.76 598.129 14.76C598.982 14.76 599.769 14.9933 600.489 15.46C601.209 15.9133 601.782 16.54 602.209 17.34C602.635 18.14 602.849 19.04 602.849 20.04C602.849 21.04 602.635 21.94 602.209 22.74C601.782 23.54 601.209 24.1733 600.489 24.64C599.769 25.0933 598.982 25.32 598.129 25.32C597.342 25.32 596.642 25.1533 596.029 24.82C595.429 24.4733 594.975 24.04 594.669 23.52H594.589L594.669 24.9V29.32H592.969V15.08ZM597.869 23.78C598.455 23.78 598.995 23.6267 599.489 23.32C599.995 23.0133 600.395 22.58 600.689 22.02C600.995 21.4467 601.149 20.7867 601.149 20.04C601.149 19.2933 600.995 18.64 600.689 18.08C600.395 17.5067 599.995 17.0667 599.489 16.76C598.995 16.4533 598.455 16.3 597.869 16.3C597.282 16.3 596.735 16.4533 596.229 16.76C595.735 17.0533 595.335 17.4867 595.029 18.06C594.735 18.62 594.589 19.28 594.589 20.04C594.589 20.7867 594.735 21.4467 595.029 22.02C595.335 22.5933 595.735 23.0333 596.229 23.34C596.735 23.6333 597.282 23.78 597.869 23.78ZM608.33 25.32C607.103 25.32 606.17 24.9667 605.53 24.26C604.903 23.5533 604.59 22.5733 604.59 21.32V15.08H606.29V21.04C606.29 22.0133 606.503 22.7133 606.93 23.14C607.37 23.5667 607.983 23.78 608.77 23.78C609.316 23.78 609.803 23.6267 610.23 23.32C610.656 23.0133 610.983 22.6133 611.21 22.12C611.45 21.6267 611.57 21.1067 611.57 20.56V15.08H613.25V25H611.65V23.52H611.57C611.276 24.0267 610.83 24.4533 610.23 24.8C609.643 25.1467 609.01 25.32 608.33 25.32ZM619.146 25.32C618.093 25.32 617.2 25.0533 616.466 24.52C615.733 23.9867 615.22 23.3267 614.926 22.54L616.446 21.88C616.7 22.5067 617.066 22.9867 617.546 23.32C618.04 23.6533 618.573 23.82 619.146 23.82C619.786 23.82 620.313 23.68 620.726 23.4C621.153 23.12 621.366 22.78 621.366 22.38C621.366 21.9933 621.206 21.6733 620.886 21.42C620.58 21.1667 620.046 20.9467 619.286 20.76L617.926 20.42C617.18 20.2467 616.54 19.9333 616.006 19.48C615.486 19.0267 615.226 18.4267 615.226 17.68C615.226 17.0667 615.4 16.54 615.746 16.1C616.106 15.66 616.58 15.3267 617.166 15.1C617.753 14.8733 618.393 14.76 619.086 14.76C619.94 14.76 620.713 14.96 621.406 15.36C622.113 15.7467 622.613 16.3 622.906 17.02L621.406 17.66C621.193 17.18 620.866 16.8267 620.426 16.6C620 16.3733 619.52 16.26 618.986 16.26C618.466 16.26 617.993 16.3867 617.566 16.64C617.153 16.8933 616.946 17.22 616.946 17.62C616.946 17.9667 617.08 18.24 617.346 18.44C617.626 18.64 618.066 18.82 618.666 18.98L620.146 19.34C621.133 19.5933 621.866 19.9733 622.346 20.48C622.84 20.9733 623.086 21.5667 623.086 22.26C623.086 22.8333 622.92 23.3533 622.586 23.82C622.253 24.2867 621.786 24.6533 621.186 24.92C620.586 25.1867 619.906 25.32 619.146 25.32Z" fill="#4285F4"/>
</svg>
